G04 Layer_Color=32896*
%FSLAX25Y25*%
%MOIN*%
G70*
G01*
G75*
%ADD10C,0.00787*%
%ADD31C,0.01000*%
%ADD44C,0.00984*%
%ADD45C,0.00100*%
%ADD46C,0.00591*%
G36*
X562729Y30133D02*
X562749Y30073D01*
X562774Y30015D01*
X562803Y29950D01*
X562833Y29896D01*
X562852Y29852D01*
X562872Y29823D01*
X562877Y29818D01*
Y29813D01*
X562931Y29719D01*
X562990Y29626D01*
X563049Y29537D01*
X563103Y29458D01*
X563152Y29390D01*
X563192Y29335D01*
X563206Y29316D01*
X563216Y29301D01*
X563221Y29291D01*
X563226Y29286D01*
X563300Y29183D01*
X563374Y29085D01*
X563438Y28996D01*
X563497Y28917D01*
X563546Y28853D01*
X563585Y28804D01*
X563600Y28784D01*
X563610Y28770D01*
X563620Y28765D01*
Y28760D01*
X563689Y28671D01*
X563753Y28588D01*
X563812Y28509D01*
X563866Y28440D01*
X563910Y28386D01*
X563944Y28342D01*
X563964Y28317D01*
X563974Y28307D01*
X564028Y28238D01*
X564068Y28184D01*
X564102Y28150D01*
X564122Y28120D01*
X564136Y28106D01*
X564141Y28096D01*
X564146Y28091D01*
X563979Y27732D01*
X562700D01*
Y26595D01*
X562267D01*
Y27741D01*
X561917D01*
Y28165D01*
X562267D01*
Y30187D01*
X562714D01*
X562729Y30133D01*
D02*
G37*
G36*
X-87613Y224035D02*
X-87519Y224025D01*
X-87436Y224015D01*
X-87362Y224005D01*
X-87303Y223995D01*
X-87254Y223985D01*
X-87224Y223980D01*
X-87219Y223975D01*
X-87214D01*
X-87318Y223572D01*
X-87328D01*
X-87347Y223577D01*
X-87362Y223582D01*
X-87367D01*
X-87397Y223592D01*
X-87416Y223597D01*
X-87436D01*
X-87465Y223602D01*
X-87500D01*
X-87529Y223606D01*
X-87539D01*
X-87598Y223611D01*
X-87652Y223616D01*
X-87677Y223621D01*
X-87839D01*
X-87874Y223616D01*
X-88164D01*
X-88179Y223454D01*
X-88189Y223306D01*
X-88198Y223169D01*
X-88208Y223036D01*
X-88218Y222918D01*
X-88223Y222809D01*
X-88228Y222706D01*
X-88233Y222618D01*
X-88238Y222539D01*
Y222475D01*
X-88243Y222416D01*
Y222367D01*
Y222332D01*
Y222303D01*
Y222288D01*
Y222283D01*
Y222175D01*
Y222081D01*
X-88238Y221993D01*
Y221924D01*
X-88233Y221860D01*
Y221820D01*
X-88228Y221791D01*
Y221781D01*
X-88223Y221707D01*
X-88218Y221634D01*
X-88208Y221565D01*
X-88198Y221506D01*
X-88194Y221456D01*
X-88184Y221422D01*
X-88179Y221397D01*
Y221388D01*
X-88164Y221324D01*
X-88144Y221265D01*
X-88130Y221215D01*
X-88110Y221171D01*
X-88095Y221137D01*
X-88080Y221112D01*
X-88075Y221097D01*
X-88070Y221092D01*
X-88016Y221019D01*
X-87987Y220989D01*
X-87957Y220964D01*
X-87933Y220945D01*
X-87913Y220930D01*
X-87898Y220925D01*
X-87893Y220920D01*
X-87849Y220901D01*
X-87805Y220886D01*
X-87765Y220876D01*
X-87721Y220871D01*
X-87687Y220866D01*
X-87657Y220861D01*
X-87633D01*
X-87578Y220866D01*
X-87529Y220871D01*
X-87485Y220881D01*
X-87446Y220891D01*
X-87416Y220901D01*
X-87392Y220910D01*
X-87377Y220920D01*
X-87372D01*
X-87298Y220974D01*
X-87264Y221004D01*
X-87239Y221028D01*
X-87219Y221053D01*
X-87205Y221073D01*
X-87195Y221087D01*
X-87190Y221092D01*
X-87146Y221181D01*
X-87131Y221220D01*
X-87116Y221260D01*
X-87106Y221289D01*
X-87096Y221314D01*
X-87091Y221333D01*
Y221338D01*
X-87072Y221442D01*
X-87062Y221496D01*
X-87057Y221540D01*
Y221579D01*
X-87052Y221609D01*
Y221634D01*
Y221638D01*
X-86614D01*
Y221570D01*
X-86619Y221506D01*
X-86624Y221447D01*
X-86634Y221397D01*
X-86639Y221353D01*
X-86644Y221319D01*
X-86649Y221299D01*
Y221289D01*
X-86683Y221166D01*
X-86698Y221112D01*
X-86717Y221063D01*
X-86737Y221024D01*
X-86747Y220994D01*
X-86757Y220969D01*
X-86762Y220964D01*
X-86791Y220905D01*
X-86826Y220856D01*
X-86855Y220812D01*
X-86890Y220773D01*
X-86914Y220738D01*
X-86934Y220713D01*
X-86949Y220699D01*
X-86954Y220694D01*
X-86998Y220655D01*
X-87047Y220620D01*
X-87096Y220590D01*
X-87146Y220561D01*
X-87185Y220541D01*
X-87214Y220527D01*
X-87234Y220522D01*
X-87244Y220517D01*
X-87313Y220497D01*
X-87382Y220482D01*
X-87446Y220467D01*
X-87510Y220463D01*
X-87564Y220458D01*
X-87603Y220453D01*
X-87711D01*
X-87775Y220458D01*
X-87834Y220467D01*
X-87884Y220477D01*
X-87923Y220482D01*
X-87957Y220492D01*
X-87977Y220497D01*
X-87982D01*
X-88036Y220517D01*
X-88085Y220536D01*
X-88130Y220561D01*
X-88169Y220581D01*
X-88198Y220600D01*
X-88223Y220615D01*
X-88238Y220625D01*
X-88243Y220630D01*
X-88317Y220699D01*
X-88351Y220733D01*
X-88376Y220768D01*
X-88400Y220802D01*
X-88415Y220827D01*
X-88425Y220841D01*
X-88430Y220846D01*
X-88484Y220945D01*
X-88503Y220994D01*
X-88523Y221033D01*
X-88533Y221068D01*
X-88543Y221097D01*
X-88553Y221117D01*
Y221122D01*
X-88587Y221235D01*
X-88597Y221289D01*
X-88607Y221343D01*
X-88617Y221388D01*
X-88621Y221422D01*
X-88626Y221447D01*
Y221456D01*
X-88636Y221525D01*
X-88646Y221594D01*
X-88651Y221658D01*
X-88656Y221712D01*
X-88661Y221761D01*
X-88666Y221796D01*
Y221816D01*
Y221825D01*
X-88671Y221968D01*
X-88676Y222037D01*
Y222096D01*
Y222155D01*
Y222194D01*
Y222224D01*
Y222234D01*
Y222495D01*
X-88666Y222750D01*
X-88661Y222868D01*
X-88656Y222982D01*
X-88651Y223090D01*
X-88646Y223193D01*
X-88641Y223282D01*
X-88636Y223365D01*
X-88631Y223439D01*
X-88626Y223498D01*
X-88621Y223547D01*
Y223587D01*
X-88617Y223606D01*
Y223616D01*
X-89123D01*
X-89133Y224035D01*
X-88154D01*
X-88085Y224039D01*
X-87706D01*
X-87613Y224035D01*
D02*
G37*
G36*
X566163Y30162D02*
X566257Y30152D01*
X566341Y30142D01*
X566414Y30133D01*
X566473Y30123D01*
X566523Y30113D01*
X566552Y30108D01*
X566557Y30103D01*
X566562D01*
X566459Y29700D01*
X566449D01*
X566429Y29704D01*
X566414Y29709D01*
X566409D01*
X566380Y29719D01*
X566360Y29724D01*
X566341D01*
X566311Y29729D01*
X566277D01*
X566247Y29734D01*
X566237D01*
X566178Y29739D01*
X566124Y29744D01*
X566100Y29749D01*
X565937D01*
X565903Y29744D01*
X565612D01*
X565598Y29581D01*
X565588Y29434D01*
X565578Y29296D01*
X565568Y29163D01*
X565558Y29045D01*
X565553Y28937D01*
X565548Y28834D01*
X565544Y28745D01*
X565539Y28666D01*
Y28602D01*
X565534Y28543D01*
Y28494D01*
Y28460D01*
Y28430D01*
Y28416D01*
Y28411D01*
Y28302D01*
Y28209D01*
X565539Y28120D01*
Y28051D01*
X565544Y27987D01*
Y27948D01*
X565548Y27919D01*
Y27909D01*
X565553Y27835D01*
X565558Y27761D01*
X565568Y27692D01*
X565578Y27633D01*
X565583Y27584D01*
X565593Y27550D01*
X565598Y27525D01*
Y27515D01*
X565612Y27451D01*
X565632Y27392D01*
X565647Y27343D01*
X565666Y27299D01*
X565681Y27264D01*
X565696Y27240D01*
X565701Y27225D01*
X565706Y27220D01*
X565760Y27146D01*
X565790Y27117D01*
X565819Y27092D01*
X565844Y27072D01*
X565863Y27058D01*
X565878Y27053D01*
X565883Y27048D01*
X565927Y27028D01*
X565972Y27013D01*
X566011Y27003D01*
X566055Y26998D01*
X566090Y26994D01*
X566119Y26989D01*
X566144D01*
X566198Y26994D01*
X566247Y26998D01*
X566291Y27008D01*
X566331Y27018D01*
X566360Y27028D01*
X566385Y27038D01*
X566400Y27048D01*
X566404D01*
X566478Y27102D01*
X566513Y27131D01*
X566537Y27156D01*
X566557Y27181D01*
X566572Y27200D01*
X566582Y27215D01*
X566587Y27220D01*
X566631Y27308D01*
X566646Y27348D01*
X566660Y27387D01*
X566670Y27417D01*
X566680Y27441D01*
X566685Y27461D01*
Y27466D01*
X566705Y27569D01*
X566714Y27623D01*
X566719Y27668D01*
Y27707D01*
X566724Y27736D01*
Y27761D01*
Y27766D01*
X567162D01*
Y27697D01*
X567157Y27633D01*
X567152Y27574D01*
X567142Y27525D01*
X567138Y27481D01*
X567133Y27446D01*
X567128Y27427D01*
Y27417D01*
X567093Y27294D01*
X567079Y27240D01*
X567059Y27190D01*
X567039Y27151D01*
X567029Y27121D01*
X567020Y27097D01*
X567015Y27092D01*
X566985Y27033D01*
X566951Y26984D01*
X566921Y26939D01*
X566887Y26900D01*
X566862Y26866D01*
X566842Y26841D01*
X566828Y26826D01*
X566823Y26821D01*
X566778Y26782D01*
X566729Y26748D01*
X566680Y26718D01*
X566631Y26689D01*
X566592Y26669D01*
X566562Y26654D01*
X566542Y26649D01*
X566532Y26644D01*
X566464Y26625D01*
X566395Y26610D01*
X566331Y26595D01*
X566267Y26590D01*
X566213Y26585D01*
X566173Y26580D01*
X566065D01*
X566001Y26585D01*
X565942Y26595D01*
X565893Y26605D01*
X565854Y26610D01*
X565819Y26620D01*
X565799Y26625D01*
X565794D01*
X565740Y26644D01*
X565691Y26664D01*
X565647Y26689D01*
X565608Y26708D01*
X565578Y26728D01*
X565553Y26743D01*
X565539Y26752D01*
X565534Y26757D01*
X565460Y26826D01*
X565425Y26861D01*
X565401Y26895D01*
X565376Y26930D01*
X565361Y26954D01*
X565352Y26969D01*
X565347Y26974D01*
X565293Y27072D01*
X565273Y27121D01*
X565253Y27161D01*
X565243Y27195D01*
X565234Y27225D01*
X565224Y27244D01*
Y27249D01*
X565189Y27363D01*
X565179Y27417D01*
X565170Y27471D01*
X565160Y27515D01*
X565155Y27550D01*
X565150Y27574D01*
Y27584D01*
X565140Y27653D01*
X565130Y27722D01*
X565125Y27786D01*
X565120Y27840D01*
X565115Y27889D01*
X565111Y27924D01*
Y27943D01*
Y27953D01*
X565106Y28096D01*
X565101Y28165D01*
Y28224D01*
Y28283D01*
Y28322D01*
Y28352D01*
Y28361D01*
Y28622D01*
X565111Y28878D01*
X565115Y28996D01*
X565120Y29109D01*
X565125Y29217D01*
X565130Y29321D01*
X565135Y29409D01*
X565140Y29493D01*
X565145Y29567D01*
X565150Y29626D01*
X565155Y29675D01*
Y29714D01*
X565160Y29734D01*
Y29744D01*
X564653D01*
X564643Y30162D01*
X565622D01*
X565691Y30167D01*
X566070D01*
X566163Y30162D01*
D02*
G37*
G36*
X406163Y30262D02*
X406257Y30252D01*
X406341Y30242D01*
X406414Y30233D01*
X406473Y30223D01*
X406523Y30213D01*
X406552Y30208D01*
X406557Y30203D01*
X406562D01*
X406459Y29800D01*
X406449D01*
X406429Y29805D01*
X406414Y29809D01*
X406409D01*
X406380Y29819D01*
X406360Y29824D01*
X406341D01*
X406311Y29829D01*
X406277D01*
X406247Y29834D01*
X406237D01*
X406178Y29839D01*
X406124Y29844D01*
X406100Y29849D01*
X405937D01*
X405903Y29844D01*
X405612D01*
X405598Y29682D01*
X405588Y29534D01*
X405578Y29396D01*
X405568Y29263D01*
X405558Y29145D01*
X405553Y29037D01*
X405548Y28934D01*
X405544Y28845D01*
X405539Y28766D01*
Y28702D01*
X405534Y28643D01*
Y28594D01*
Y28560D01*
Y28530D01*
Y28515D01*
Y28511D01*
Y28402D01*
Y28309D01*
X405539Y28220D01*
Y28151D01*
X405544Y28087D01*
Y28048D01*
X405548Y28019D01*
Y28009D01*
X405553Y27935D01*
X405558Y27861D01*
X405568Y27792D01*
X405578Y27733D01*
X405583Y27684D01*
X405593Y27650D01*
X405598Y27625D01*
Y27615D01*
X405612Y27551D01*
X405632Y27492D01*
X405647Y27443D01*
X405666Y27399D01*
X405681Y27364D01*
X405696Y27340D01*
X405701Y27325D01*
X405706Y27320D01*
X405760Y27246D01*
X405790Y27217D01*
X405819Y27192D01*
X405844Y27172D01*
X405863Y27158D01*
X405878Y27153D01*
X405883Y27148D01*
X405927Y27128D01*
X405972Y27113D01*
X406011Y27103D01*
X406055Y27099D01*
X406090Y27094D01*
X406119Y27089D01*
X406144D01*
X406198Y27094D01*
X406247Y27099D01*
X406291Y27108D01*
X406331Y27118D01*
X406360Y27128D01*
X406385Y27138D01*
X406400Y27148D01*
X406404D01*
X406478Y27202D01*
X406513Y27231D01*
X406537Y27256D01*
X406557Y27281D01*
X406572Y27300D01*
X406582Y27315D01*
X406587Y27320D01*
X406631Y27408D01*
X406646Y27448D01*
X406660Y27487D01*
X406670Y27517D01*
X406680Y27541D01*
X406685Y27561D01*
Y27566D01*
X406705Y27669D01*
X406714Y27723D01*
X406719Y27768D01*
Y27807D01*
X406724Y27836D01*
Y27861D01*
Y27866D01*
X407162D01*
Y27797D01*
X407157Y27733D01*
X407152Y27674D01*
X407142Y27625D01*
X407138Y27581D01*
X407133Y27546D01*
X407128Y27527D01*
Y27517D01*
X407093Y27394D01*
X407079Y27340D01*
X407059Y27290D01*
X407039Y27251D01*
X407029Y27222D01*
X407020Y27197D01*
X407015Y27192D01*
X406985Y27133D01*
X406951Y27084D01*
X406921Y27040D01*
X406887Y27000D01*
X406862Y26966D01*
X406842Y26941D01*
X406828Y26926D01*
X406823Y26921D01*
X406778Y26882D01*
X406729Y26848D01*
X406680Y26818D01*
X406631Y26789D01*
X406592Y26769D01*
X406562Y26754D01*
X406542Y26749D01*
X406532Y26744D01*
X406464Y26725D01*
X406395Y26710D01*
X406331Y26695D01*
X406267Y26690D01*
X406213Y26685D01*
X406173Y26680D01*
X406065D01*
X406001Y26685D01*
X405942Y26695D01*
X405893Y26705D01*
X405854Y26710D01*
X405819Y26720D01*
X405799Y26725D01*
X405794D01*
X405740Y26744D01*
X405691Y26764D01*
X405647Y26789D01*
X405608Y26808D01*
X405578Y26828D01*
X405553Y26843D01*
X405539Y26853D01*
X405534Y26857D01*
X405460Y26926D01*
X405425Y26961D01*
X405401Y26995D01*
X405376Y27030D01*
X405362Y27054D01*
X405352Y27069D01*
X405347Y27074D01*
X405293Y27172D01*
X405273Y27222D01*
X405253Y27261D01*
X405243Y27295D01*
X405234Y27325D01*
X405224Y27345D01*
Y27349D01*
X405189Y27463D01*
X405179Y27517D01*
X405170Y27571D01*
X405160Y27615D01*
X405155Y27650D01*
X405150Y27674D01*
Y27684D01*
X405140Y27753D01*
X405130Y27822D01*
X405125Y27886D01*
X405120Y27940D01*
X405116Y27989D01*
X405111Y28023D01*
Y28043D01*
Y28053D01*
X405106Y28196D01*
X405101Y28265D01*
Y28324D01*
Y28383D01*
Y28422D01*
Y28451D01*
Y28461D01*
Y28722D01*
X405111Y28978D01*
X405116Y29096D01*
X405120Y29209D01*
X405125Y29317D01*
X405130Y29421D01*
X405135Y29509D01*
X405140Y29593D01*
X405145Y29667D01*
X405150Y29726D01*
X405155Y29775D01*
Y29814D01*
X405160Y29834D01*
Y29844D01*
X404653D01*
X404643Y30262D01*
X405622D01*
X405691Y30267D01*
X406070D01*
X406163Y30262D01*
D02*
G37*
G36*
X403266Y30267D02*
X403325Y30257D01*
X403379Y30247D01*
X403423Y30237D01*
X403452Y30228D01*
X403472Y30223D01*
X403482Y30218D01*
X403541Y30193D01*
X403590Y30174D01*
X403635Y30149D01*
X403674Y30129D01*
X403703Y30110D01*
X403723Y30095D01*
X403738Y30085D01*
X403743Y30080D01*
X403807Y30021D01*
X403866Y29967D01*
X403886Y29947D01*
X403900Y29928D01*
X403910Y29918D01*
X403915Y29913D01*
X403964Y29849D01*
X403994Y29805D01*
X404013Y29775D01*
X404018Y29770D01*
Y29765D01*
X404033Y29731D01*
X404043Y29711D01*
X404053Y29696D01*
Y29691D01*
X403664Y29475D01*
X403625Y29544D01*
X403585Y29603D01*
X403541Y29652D01*
X403497Y29696D01*
X403448Y29736D01*
X403403Y29765D01*
X403354Y29790D01*
X403310Y29809D01*
X403231Y29839D01*
X403197Y29849D01*
X403162Y29854D01*
X403138Y29859D01*
X403103D01*
X403024Y29854D01*
X402956Y29844D01*
X402892Y29829D01*
X402838Y29814D01*
X402798Y29795D01*
X402764Y29780D01*
X402744Y29770D01*
X402739Y29765D01*
X402690Y29731D01*
X402656Y29691D01*
X402626Y29652D01*
X402611Y29613D01*
X402601Y29578D01*
X402592Y29549D01*
Y29529D01*
Y29524D01*
X402596Y29455D01*
X402606Y29391D01*
X402616Y29337D01*
X402631Y29293D01*
X402651Y29254D01*
X402660Y29229D01*
X402670Y29214D01*
X402675Y29209D01*
X402710Y29170D01*
X402754Y29135D01*
X402798Y29106D01*
X402838Y29076D01*
X402877Y29057D01*
X402911Y29042D01*
X402931Y29037D01*
X402941Y29032D01*
X403020Y29008D01*
X403103Y28993D01*
X403177Y28978D01*
X403241Y28973D01*
X403300Y28968D01*
X403344Y28963D01*
X403428D01*
Y28530D01*
X403261D01*
X403236Y28525D01*
X403202D01*
X403133Y28515D01*
X403064Y28506D01*
X403029Y28496D01*
X403005Y28491D01*
X402990Y28486D01*
X402985D01*
X402892Y28456D01*
X402847Y28442D01*
X402813Y28422D01*
X402783Y28412D01*
X402759Y28397D01*
X402744Y28392D01*
X402739Y28388D01*
X402670Y28343D01*
X402616Y28299D01*
X402567Y28255D01*
X402528Y28210D01*
X402498Y28176D01*
X402478Y28146D01*
X402468Y28122D01*
X402464Y28117D01*
X402434Y28053D01*
X402414Y27989D01*
X402400Y27925D01*
X402390Y27861D01*
X402385Y27807D01*
X402380Y27763D01*
Y27733D01*
Y27728D01*
Y27723D01*
X402390Y27615D01*
X402410Y27522D01*
X402439Y27438D01*
X402473Y27369D01*
X402508Y27315D01*
X402537Y27276D01*
X402557Y27251D01*
X402567Y27241D01*
X402641Y27182D01*
X402724Y27138D01*
X402813Y27108D01*
X402892Y27089D01*
X402965Y27074D01*
X403024Y27069D01*
X403049Y27064D01*
X403079D01*
X403182Y27069D01*
X403275Y27089D01*
X403354Y27113D01*
X403418Y27143D01*
X403472Y27167D01*
X403512Y27192D01*
X403531Y27212D01*
X403541Y27217D01*
X403595Y27281D01*
X403640Y27345D01*
X403669Y27413D01*
X403689Y27477D01*
X403703Y27536D01*
X403708Y27581D01*
X403713Y27610D01*
Y27615D01*
Y27620D01*
X404146D01*
X404141Y27541D01*
X404132Y27468D01*
X404122Y27394D01*
X404102Y27325D01*
X404053Y27207D01*
X404028Y27153D01*
X403999Y27103D01*
X403974Y27059D01*
X403949Y27020D01*
X403925Y26990D01*
X403900Y26961D01*
X403881Y26941D01*
X403871Y26926D01*
X403861Y26917D01*
X403856Y26912D01*
X403797Y26862D01*
X403738Y26823D01*
X403674Y26789D01*
X403610Y26754D01*
X403482Y26705D01*
X403359Y26675D01*
X403300Y26666D01*
X403246Y26656D01*
X403202Y26651D01*
X403157Y26646D01*
X403123Y26641D01*
X403079D01*
X402970Y26646D01*
X402872Y26656D01*
X402778Y26671D01*
X402695Y26695D01*
X402616Y26720D01*
X402547Y26749D01*
X402483Y26779D01*
X402424Y26808D01*
X402375Y26838D01*
X402331Y26872D01*
X402291Y26897D01*
X402262Y26921D01*
X402237Y26946D01*
X402222Y26961D01*
X402213Y26971D01*
X402208Y26976D01*
X402159Y27035D01*
X402119Y27099D01*
X402085Y27158D01*
X402060Y27212D01*
X402040Y27261D01*
X402021Y27300D01*
X402016Y27325D01*
X402011Y27335D01*
X401986Y27413D01*
X401972Y27482D01*
X401957Y27551D01*
X401952Y27610D01*
X401947Y27659D01*
X401942Y27699D01*
Y27723D01*
Y27733D01*
X401947Y27871D01*
X401967Y27994D01*
X401996Y28107D01*
X402036Y28215D01*
X402080Y28309D01*
X402134Y28392D01*
X402188Y28471D01*
X402242Y28535D01*
X402301Y28594D01*
X402355Y28643D01*
X402405Y28688D01*
X402454Y28717D01*
X402493Y28747D01*
X402523Y28762D01*
X402542Y28771D01*
X402547Y28776D01*
X402483Y28811D01*
X402424Y28855D01*
X402375Y28904D01*
X402336Y28948D01*
X402306Y28993D01*
X402282Y29027D01*
X402267Y29052D01*
X402262Y29062D01*
X402227Y29140D01*
X402203Y29224D01*
X402183Y29303D01*
X402173Y29377D01*
X402164Y29440D01*
X402159Y29495D01*
Y29514D01*
Y29529D01*
Y29534D01*
Y29539D01*
X402164Y29627D01*
X402178Y29706D01*
X402203Y29780D01*
X402227Y29839D01*
X402252Y29888D01*
X402277Y29928D01*
X402291Y29947D01*
X402296Y29957D01*
X402350Y30021D01*
X402405Y30070D01*
X402464Y30114D01*
X402518Y30149D01*
X402562Y30174D01*
X402601Y30188D01*
X402626Y30198D01*
X402636Y30203D01*
X402714Y30228D01*
X402798Y30247D01*
X402872Y30257D01*
X402946Y30267D01*
X403010Y30272D01*
X403059Y30277D01*
X403202D01*
X403266Y30267D01*
D02*
G37*
G36*
X209631Y-37776D02*
X209725Y-37786D01*
X209808Y-37796D01*
X209882Y-37806D01*
X209941Y-37816D01*
X209990Y-37826D01*
X210020Y-37831D01*
X210025Y-37835D01*
X210030D01*
X209926Y-38239D01*
X209916D01*
X209897Y-38234D01*
X209882Y-38229D01*
X209877D01*
X209848Y-38219D01*
X209828Y-38214D01*
X209808D01*
X209779Y-38210D01*
X209744D01*
X209715Y-38205D01*
X209705D01*
X209646Y-38200D01*
X209592Y-38195D01*
X209567Y-38190D01*
X209405D01*
X209370Y-38195D01*
X209080D01*
X209065Y-38357D01*
X209055Y-38505D01*
X209046Y-38642D01*
X209036Y-38775D01*
X209026Y-38893D01*
X209021Y-39002D01*
X209016Y-39105D01*
X209011Y-39193D01*
X209006Y-39272D01*
Y-39336D01*
X209001Y-39395D01*
Y-39444D01*
Y-39479D01*
Y-39508D01*
Y-39523D01*
Y-39528D01*
Y-39636D01*
Y-39730D01*
X209006Y-39818D01*
Y-39887D01*
X209011Y-39951D01*
Y-39990D01*
X209016Y-40020D01*
Y-40030D01*
X209021Y-40104D01*
X209026Y-40178D01*
X209036Y-40246D01*
X209046Y-40305D01*
X209051Y-40355D01*
X209060Y-40389D01*
X209065Y-40414D01*
Y-40424D01*
X209080Y-40487D01*
X209100Y-40547D01*
X209115Y-40596D01*
X209134Y-40640D01*
X209149Y-40674D01*
X209164Y-40699D01*
X209169Y-40714D01*
X209174Y-40719D01*
X209228Y-40793D01*
X209257Y-40822D01*
X209287Y-40847D01*
X209311Y-40866D01*
X209331Y-40881D01*
X209346Y-40886D01*
X209351Y-40891D01*
X209395Y-40911D01*
X209439Y-40925D01*
X209479Y-40935D01*
X209523Y-40940D01*
X209557Y-40945D01*
X209587Y-40950D01*
X209612D01*
X209666Y-40945D01*
X209715Y-40940D01*
X209759Y-40930D01*
X209798Y-40920D01*
X209828Y-40911D01*
X209853Y-40901D01*
X209867Y-40891D01*
X209872D01*
X209946Y-40837D01*
X209981Y-40807D01*
X210005Y-40783D01*
X210025Y-40758D01*
X210039Y-40738D01*
X210049Y-40724D01*
X210054Y-40719D01*
X210099Y-40630D01*
X210113Y-40591D01*
X210128Y-40551D01*
X210138Y-40522D01*
X210148Y-40497D01*
X210153Y-40478D01*
Y-40473D01*
X210172Y-40369D01*
X210182Y-40315D01*
X210187Y-40271D01*
Y-40232D01*
X210192Y-40202D01*
Y-40178D01*
Y-40172D01*
X210630D01*
Y-40241D01*
X210625Y-40305D01*
X210620Y-40364D01*
X210610Y-40414D01*
X210605Y-40458D01*
X210600Y-40492D01*
X210595Y-40512D01*
Y-40522D01*
X210561Y-40645D01*
X210546Y-40699D01*
X210527Y-40748D01*
X210507Y-40788D01*
X210497Y-40817D01*
X210487Y-40842D01*
X210482Y-40847D01*
X210453Y-40906D01*
X210418Y-40955D01*
X210389Y-40999D01*
X210354Y-41039D01*
X210330Y-41073D01*
X210310Y-41098D01*
X210295Y-41112D01*
X210290Y-41117D01*
X210246Y-41157D01*
X210197Y-41191D01*
X210148Y-41221D01*
X210099Y-41250D01*
X210059Y-41270D01*
X210030Y-41284D01*
X210010Y-41289D01*
X210000Y-41294D01*
X209931Y-41314D01*
X209862Y-41329D01*
X209798Y-41344D01*
X209735Y-41348D01*
X209680Y-41353D01*
X209641Y-41358D01*
X209533D01*
X209469Y-41353D01*
X209410Y-41344D01*
X209361Y-41334D01*
X209321Y-41329D01*
X209287Y-41319D01*
X209267Y-41314D01*
X209262D01*
X209208Y-41294D01*
X209159Y-41275D01*
X209115Y-41250D01*
X209075Y-41230D01*
X209046Y-41211D01*
X209021Y-41196D01*
X209006Y-41186D01*
X209001Y-41181D01*
X208928Y-41112D01*
X208893Y-41078D01*
X208869Y-41043D01*
X208844Y-41009D01*
X208829Y-40984D01*
X208819Y-40970D01*
X208814Y-40965D01*
X208760Y-40866D01*
X208741Y-40817D01*
X208721Y-40778D01*
X208711Y-40743D01*
X208701Y-40714D01*
X208691Y-40694D01*
Y-40689D01*
X208657Y-40576D01*
X208647Y-40522D01*
X208637Y-40468D01*
X208628Y-40424D01*
X208623Y-40389D01*
X208618Y-40364D01*
Y-40355D01*
X208608Y-40286D01*
X208598Y-40217D01*
X208593Y-40153D01*
X208588Y-40099D01*
X208583Y-40049D01*
X208578Y-40015D01*
Y-39995D01*
Y-39986D01*
X208573Y-39843D01*
X208568Y-39774D01*
Y-39715D01*
Y-39656D01*
Y-39617D01*
Y-39587D01*
Y-39577D01*
Y-39316D01*
X208578Y-39061D01*
X208583Y-38943D01*
X208588Y-38829D01*
X208593Y-38721D01*
X208598Y-38618D01*
X208603Y-38529D01*
X208608Y-38446D01*
X208613Y-38372D01*
X208618Y-38313D01*
X208623Y-38264D01*
Y-38224D01*
X208628Y-38205D01*
Y-38195D01*
X208121D01*
X208111Y-37776D01*
X209090D01*
X209159Y-37772D01*
X209538D01*
X209631Y-37776D01*
D02*
G37*
G36*
X205877Y-37752D02*
X205980Y-37772D01*
X206079Y-37791D01*
X206172Y-37816D01*
X206261Y-37845D01*
X206340Y-37875D01*
X206418Y-37900D01*
X206487Y-37929D01*
X206551Y-37958D01*
X206605Y-37988D01*
X206655Y-38013D01*
X206694Y-38032D01*
X206723Y-38052D01*
X206748Y-38067D01*
X206763Y-38072D01*
X206768Y-38077D01*
X206841Y-38131D01*
X206910Y-38185D01*
X206974Y-38244D01*
X207033Y-38303D01*
X207087Y-38362D01*
X207137Y-38421D01*
X207181Y-38480D01*
X207215Y-38534D01*
X207250Y-38588D01*
X207279Y-38638D01*
X207304Y-38677D01*
X207324Y-38716D01*
X207338Y-38746D01*
X207348Y-38770D01*
X207358Y-38785D01*
Y-38790D01*
X207398Y-38888D01*
X207427Y-38992D01*
X207481Y-39193D01*
X207516Y-39385D01*
X207530Y-39479D01*
X207545Y-39562D01*
X207550Y-39646D01*
X207560Y-39715D01*
X207565Y-39779D01*
Y-39838D01*
X207570Y-39882D01*
Y-39912D01*
Y-39936D01*
Y-39941D01*
X207565Y-40059D01*
X207560Y-40168D01*
X207545Y-40271D01*
X207525Y-40369D01*
X207506Y-40458D01*
X207481Y-40541D01*
X207456Y-40620D01*
X207432Y-40689D01*
X207407Y-40748D01*
X207383Y-40802D01*
X207358Y-40852D01*
X207338Y-40891D01*
X207319Y-40920D01*
X207304Y-40940D01*
X207299Y-40955D01*
X207294Y-40960D01*
X207240Y-41029D01*
X207181Y-41088D01*
X207117Y-41137D01*
X207048Y-41181D01*
X206984Y-41221D01*
X206915Y-41250D01*
X206851Y-41275D01*
X206787Y-41294D01*
X206723Y-41309D01*
X206669Y-41324D01*
X206620Y-41334D01*
X206576Y-41339D01*
X206537D01*
X206512Y-41344D01*
X206487D01*
X206394Y-41339D01*
X206305Y-41334D01*
X206222Y-41319D01*
X206148Y-41304D01*
X206074Y-41284D01*
X206005Y-41260D01*
X205946Y-41235D01*
X205887Y-41211D01*
X205838Y-41191D01*
X205794Y-41166D01*
X205759Y-41142D01*
X205725Y-41122D01*
X205700Y-41107D01*
X205685Y-41093D01*
X205676Y-41088D01*
X205671Y-41083D01*
X205616Y-41029D01*
X205567Y-40975D01*
X205528Y-40911D01*
X205493Y-40847D01*
X205459Y-40783D01*
X205434Y-40719D01*
X205400Y-40591D01*
X205385Y-40532D01*
X205375Y-40473D01*
X205370Y-40424D01*
X205365Y-40379D01*
X205361Y-40345D01*
Y-40320D01*
Y-40301D01*
Y-40295D01*
X205365Y-40207D01*
X205375Y-40123D01*
X205385Y-40045D01*
X205405Y-39971D01*
X205430Y-39902D01*
X205454Y-39838D01*
X205479Y-39779D01*
X205503Y-39725D01*
X205533Y-39676D01*
X205557Y-39631D01*
X205582Y-39597D01*
X205607Y-39567D01*
X205626Y-39543D01*
X205636Y-39528D01*
X205646Y-39518D01*
X205651Y-39513D01*
X205705Y-39459D01*
X205764Y-39415D01*
X205823Y-39375D01*
X205887Y-39341D01*
X205946Y-39312D01*
X206010Y-39287D01*
X206128Y-39252D01*
X206182Y-39238D01*
X206231Y-39228D01*
X206276Y-39223D01*
X206315Y-39218D01*
X206345Y-39213D01*
X206443D01*
X206492Y-39218D01*
X206537D01*
X206576Y-39223D01*
X206605Y-39228D01*
X206630D01*
X206645Y-39233D01*
X206650D01*
X206723Y-39248D01*
X206783Y-39272D01*
X206807Y-39282D01*
X206827Y-39287D01*
X206837Y-39297D01*
X206841D01*
X206896Y-39326D01*
X206935Y-39351D01*
X206955Y-39366D01*
X206964Y-39371D01*
X206999Y-39395D01*
X207038Y-39430D01*
X207068Y-39459D01*
X207078Y-39464D01*
X207083Y-39469D01*
X207063Y-39356D01*
X207043Y-39252D01*
X207019Y-39169D01*
X206999Y-39095D01*
X206984Y-39036D01*
X206969Y-38997D01*
X206960Y-38972D01*
X206955Y-38962D01*
X206896Y-38844D01*
X206827Y-38736D01*
X206748Y-38642D01*
X206669Y-38564D01*
X206600Y-38500D01*
X206541Y-38456D01*
X206517Y-38436D01*
X206502Y-38426D01*
X206492Y-38416D01*
X206487D01*
X206359Y-38342D01*
X206222Y-38283D01*
X206094Y-38239D01*
X205971Y-38205D01*
X205917Y-38195D01*
X205862Y-38185D01*
X205818Y-38175D01*
X205779Y-38170D01*
X205749Y-38165D01*
X205725Y-38160D01*
X205705D01*
X205769Y-37737D01*
X205877Y-37752D01*
D02*
G37*
G36*
X356182Y-33854D02*
X356261Y-33859D01*
X356394Y-33889D01*
X356458Y-33903D01*
X356512Y-33923D01*
X356566Y-33948D01*
X356610Y-33967D01*
X356655Y-33992D01*
X356689Y-34012D01*
X356718Y-34036D01*
X356748Y-34051D01*
X356768Y-34066D01*
X356782Y-34081D01*
X356787Y-34086D01*
X356792Y-34090D01*
X356837Y-34135D01*
X356876Y-34184D01*
X356910Y-34233D01*
X356935Y-34282D01*
X356984Y-34386D01*
X357014Y-34479D01*
X357028Y-34568D01*
X357033Y-34602D01*
X357038Y-34632D01*
X357043Y-34661D01*
Y-34681D01*
Y-34691D01*
Y-34696D01*
X357038Y-34774D01*
X357018Y-34843D01*
X356999Y-34912D01*
X356969Y-34976D01*
X356945Y-35025D01*
X356920Y-35065D01*
X356905Y-35089D01*
X356901Y-35099D01*
X356841Y-35168D01*
X356787Y-35222D01*
X356728Y-35271D01*
X356674Y-35311D01*
X356630Y-35340D01*
X356595Y-35360D01*
X356571Y-35370D01*
X356561Y-35375D01*
X356659Y-35429D01*
X356753Y-35493D01*
X356837Y-35557D01*
X356905Y-35620D01*
X356964Y-35680D01*
X357009Y-35724D01*
X357028Y-35743D01*
X357038Y-35758D01*
X357043Y-35763D01*
X357048Y-35768D01*
X357117Y-35866D01*
X357166Y-35970D01*
X357206Y-36068D01*
X357230Y-36162D01*
X357245Y-36240D01*
X357250Y-36275D01*
Y-36304D01*
X357255Y-36329D01*
Y-36349D01*
Y-36358D01*
Y-36364D01*
X357250Y-36447D01*
X357240Y-36531D01*
X357225Y-36609D01*
X357206Y-36678D01*
X357181Y-36747D01*
X357156Y-36811D01*
X357127Y-36870D01*
X357097Y-36924D01*
X357068Y-36969D01*
X357038Y-37013D01*
X357014Y-37047D01*
X356989Y-37077D01*
X356969Y-37101D01*
X356955Y-37116D01*
X356945Y-37126D01*
X356940Y-37131D01*
X356876Y-37185D01*
X356812Y-37229D01*
X356743Y-37269D01*
X356674Y-37303D01*
X356605Y-37328D01*
X356532Y-37352D01*
X356399Y-37387D01*
X356340Y-37402D01*
X356280Y-37411D01*
X356231Y-37416D01*
X356187Y-37421D01*
X356148Y-37426D01*
X356099D01*
X356000Y-37421D01*
X355911Y-37411D01*
X355823Y-37397D01*
X355744Y-37382D01*
X355670Y-37357D01*
X355602Y-37333D01*
X355538Y-37308D01*
X355479Y-37279D01*
X355429Y-37249D01*
X355385Y-37225D01*
X355346Y-37200D01*
X355316Y-37175D01*
X355292Y-37161D01*
X355272Y-37146D01*
X355262Y-37136D01*
X355257Y-37131D01*
X355203Y-37072D01*
X355154Y-37013D01*
X355110Y-36949D01*
X355070Y-36885D01*
X355041Y-36821D01*
X355016Y-36757D01*
X354977Y-36634D01*
X354962Y-36580D01*
X354952Y-36526D01*
X354947Y-36481D01*
X354942Y-36442D01*
X354937Y-36408D01*
Y-36383D01*
Y-36368D01*
Y-36364D01*
Y-36299D01*
X354947Y-36240D01*
X354972Y-36127D01*
X355006Y-36024D01*
X355041Y-35940D01*
X355080Y-35866D01*
X355100Y-35837D01*
X355115Y-35812D01*
X355129Y-35793D01*
X355139Y-35778D01*
X355144Y-35773D01*
X355149Y-35768D01*
X355228Y-35675D01*
X355311Y-35596D01*
X355390Y-35527D01*
X355464Y-35473D01*
X355528Y-35429D01*
X355582Y-35399D01*
X355602Y-35389D01*
X355616Y-35379D01*
X355621Y-35375D01*
X355626D01*
X355557Y-35340D01*
X355498Y-35296D01*
X355439Y-35252D01*
X355395Y-35207D01*
X355356Y-35163D01*
X355326Y-35129D01*
X355306Y-35109D01*
X355301Y-35099D01*
X355257Y-35025D01*
X355223Y-34951D01*
X355198Y-34883D01*
X355178Y-34824D01*
X355169Y-34769D01*
X355164Y-34730D01*
Y-34705D01*
Y-34696D01*
X355169Y-34627D01*
X355173Y-34563D01*
X355203Y-34445D01*
X355242Y-34341D01*
X355287Y-34253D01*
X355336Y-34184D01*
X355356Y-34154D01*
X355375Y-34135D01*
X355390Y-34115D01*
X355405Y-34100D01*
X355410Y-34095D01*
X355415Y-34090D01*
X355464Y-34046D01*
X355513Y-34012D01*
X355567Y-33977D01*
X355626Y-33953D01*
X355739Y-33908D01*
X355853Y-33879D01*
X355951Y-33864D01*
X355995Y-33854D01*
X356030D01*
X356059Y-33849D01*
X356103D01*
X356182Y-33854D01*
D02*
G37*
G36*
X-89773Y222332D02*
X-90122Y222185D01*
X-90127Y222189D01*
X-90181Y222239D01*
X-90235Y222288D01*
X-90289Y222322D01*
X-90343Y222357D01*
X-90398Y222386D01*
X-90447Y222411D01*
X-90540Y222445D01*
X-90624Y222465D01*
X-90658Y222470D01*
X-90688Y222475D01*
X-90712Y222480D01*
X-90747D01*
X-90816Y222475D01*
X-90875Y222470D01*
X-90929Y222455D01*
X-90978Y222445D01*
X-91022Y222431D01*
X-91052Y222416D01*
X-91072Y222411D01*
X-91077Y222406D01*
X-91141Y222372D01*
X-91195Y222327D01*
X-91244Y222283D01*
X-91283Y222229D01*
X-91318Y222170D01*
X-91347Y222111D01*
X-91372Y222052D01*
X-91391Y221993D01*
X-91416Y221884D01*
X-91426Y221835D01*
X-91431Y221791D01*
X-91436Y221752D01*
Y221727D01*
Y221707D01*
Y221702D01*
X-91426Y221565D01*
X-91406Y221442D01*
X-91377Y221338D01*
X-91342Y221255D01*
X-91308Y221191D01*
X-91278Y221142D01*
X-91259Y221112D01*
X-91249Y221102D01*
X-91170Y221033D01*
X-91087Y220984D01*
X-90998Y220945D01*
X-90914Y220920D01*
X-90835Y220905D01*
X-90801Y220901D01*
X-90776D01*
X-90752Y220896D01*
X-90717D01*
X-90644Y220901D01*
X-90570Y220915D01*
X-90511Y220935D01*
X-90457Y220955D01*
X-90412Y220974D01*
X-90383Y220994D01*
X-90358Y221009D01*
X-90353Y221014D01*
X-90299Y221063D01*
X-90245Y221117D01*
X-90196Y221176D01*
X-90157Y221225D01*
X-90122Y221274D01*
X-90097Y221314D01*
X-90078Y221338D01*
X-90073Y221348D01*
X-89709Y221107D01*
X-89773Y221009D01*
X-89842Y220915D01*
X-89911Y220836D01*
X-89974Y220773D01*
X-90034Y220718D01*
X-90083Y220679D01*
X-90112Y220655D01*
X-90117Y220645D01*
X-90122D01*
X-90220Y220586D01*
X-90319Y220541D01*
X-90417Y220512D01*
X-90511Y220492D01*
X-90589Y220477D01*
X-90624Y220472D01*
X-90654D01*
X-90673Y220467D01*
X-90712D01*
X-90806Y220472D01*
X-90895Y220482D01*
X-90983Y220497D01*
X-91062Y220522D01*
X-91136Y220546D01*
X-91205Y220571D01*
X-91268Y220600D01*
X-91323Y220630D01*
X-91377Y220664D01*
X-91421Y220689D01*
X-91460Y220718D01*
X-91490Y220743D01*
X-91514Y220763D01*
X-91534Y220778D01*
X-91544Y220787D01*
X-91549Y220792D01*
X-91603Y220856D01*
X-91652Y220925D01*
X-91697Y220994D01*
X-91736Y221073D01*
X-91765Y221146D01*
X-91790Y221220D01*
X-91829Y221368D01*
X-91844Y221437D01*
X-91854Y221501D01*
X-91859Y221560D01*
X-91864Y221609D01*
X-91869Y221648D01*
Y221683D01*
Y221702D01*
Y221707D01*
X-91864Y221850D01*
X-91844Y221978D01*
X-91815Y222091D01*
X-91785Y222189D01*
X-91765Y222229D01*
X-91751Y222268D01*
X-91736Y222298D01*
X-91726Y222327D01*
X-91711Y222347D01*
X-91706Y222362D01*
X-91697Y222372D01*
Y222376D01*
X-91628Y222475D01*
X-91559Y222563D01*
X-91485Y222632D01*
X-91421Y222691D01*
X-91362Y222736D01*
X-91318Y222770D01*
X-91283Y222790D01*
X-91278Y222795D01*
X-91273D01*
X-91180Y222834D01*
X-91087Y222864D01*
X-90998Y222883D01*
X-90914Y222898D01*
X-90845Y222908D01*
X-90791Y222913D01*
X-90742D01*
X-90644Y222908D01*
X-90550Y222888D01*
X-90462Y222868D01*
X-90383Y222839D01*
X-90319Y222814D01*
X-90270Y222790D01*
X-90250Y222780D01*
X-90235Y222770D01*
X-90230Y222765D01*
X-90225D01*
X-90289Y223582D01*
X-91544D01*
Y224005D01*
X-89901Y224010D01*
X-89773Y222332D01*
D02*
G37*
G36*
X359238Y-33839D02*
X359331Y-33849D01*
X359415Y-33859D01*
X359488Y-33869D01*
X359547Y-33879D01*
X359597Y-33889D01*
X359626Y-33894D01*
X359631Y-33898D01*
X359636D01*
X359533Y-34302D01*
X359523D01*
X359503Y-34297D01*
X359488Y-34292D01*
X359484D01*
X359454Y-34282D01*
X359434Y-34277D01*
X359415D01*
X359385Y-34272D01*
X359351D01*
X359321Y-34268D01*
X359311D01*
X359252Y-34263D01*
X359198Y-34258D01*
X359173Y-34253D01*
X359011D01*
X358977Y-34258D01*
X358686D01*
X358672Y-34420D01*
X358662Y-34568D01*
X358652Y-34705D01*
X358642Y-34838D01*
X358632Y-34956D01*
X358627Y-35065D01*
X358623Y-35168D01*
X358617Y-35256D01*
X358613Y-35335D01*
Y-35399D01*
X358608Y-35458D01*
Y-35507D01*
Y-35542D01*
Y-35571D01*
Y-35586D01*
Y-35591D01*
Y-35699D01*
Y-35793D01*
X358613Y-35881D01*
Y-35950D01*
X358617Y-36014D01*
Y-36053D01*
X358623Y-36083D01*
Y-36093D01*
X358627Y-36167D01*
X358632Y-36240D01*
X358642Y-36309D01*
X358652Y-36368D01*
X358657Y-36418D01*
X358667Y-36452D01*
X358672Y-36477D01*
Y-36487D01*
X358686Y-36550D01*
X358706Y-36609D01*
X358721Y-36659D01*
X358740Y-36703D01*
X358755Y-36737D01*
X358770Y-36762D01*
X358775Y-36777D01*
X358780Y-36782D01*
X358834Y-36856D01*
X358863Y-36885D01*
X358893Y-36910D01*
X358918Y-36929D01*
X358937Y-36944D01*
X358952Y-36949D01*
X358957Y-36954D01*
X359001Y-36974D01*
X359046Y-36988D01*
X359085Y-36998D01*
X359129Y-37003D01*
X359164Y-37008D01*
X359193Y-37013D01*
X359218D01*
X359272Y-37008D01*
X359321Y-37003D01*
X359365Y-36993D01*
X359405Y-36983D01*
X359434Y-36974D01*
X359459Y-36964D01*
X359474Y-36954D01*
X359478D01*
X359552Y-36900D01*
X359587Y-36870D01*
X359611Y-36846D01*
X359631Y-36821D01*
X359646Y-36801D01*
X359656Y-36787D01*
X359661Y-36782D01*
X359705Y-36693D01*
X359720Y-36654D01*
X359734Y-36614D01*
X359744Y-36585D01*
X359754Y-36560D01*
X359759Y-36541D01*
Y-36536D01*
X359779Y-36432D01*
X359788Y-36378D01*
X359793Y-36334D01*
Y-36295D01*
X359798Y-36265D01*
Y-36240D01*
Y-36235D01*
X360236D01*
Y-36304D01*
X360231Y-36368D01*
X360226Y-36427D01*
X360216Y-36477D01*
X360212Y-36521D01*
X360207Y-36555D01*
X360202Y-36575D01*
Y-36585D01*
X360167Y-36708D01*
X360153Y-36762D01*
X360133Y-36811D01*
X360113Y-36851D01*
X360103Y-36880D01*
X360093Y-36905D01*
X360089Y-36910D01*
X360059Y-36969D01*
X360025Y-37018D01*
X359995Y-37062D01*
X359961Y-37101D01*
X359936Y-37136D01*
X359916Y-37161D01*
X359902Y-37175D01*
X359897Y-37180D01*
X359853Y-37220D01*
X359803Y-37254D01*
X359754Y-37284D01*
X359705Y-37313D01*
X359665Y-37333D01*
X359636Y-37347D01*
X359616Y-37352D01*
X359607Y-37357D01*
X359538Y-37377D01*
X359469Y-37392D01*
X359405Y-37407D01*
X359341Y-37411D01*
X359287Y-37416D01*
X359247Y-37421D01*
X359139D01*
X359075Y-37416D01*
X359016Y-37407D01*
X358967Y-37397D01*
X358927Y-37392D01*
X358893Y-37382D01*
X358873Y-37377D01*
X358869D01*
X358814Y-37357D01*
X358765Y-37338D01*
X358721Y-37313D01*
X358682Y-37293D01*
X358652Y-37274D01*
X358627Y-37259D01*
X358613Y-37249D01*
X358608Y-37244D01*
X358534Y-37175D01*
X358500Y-37141D01*
X358475Y-37106D01*
X358450Y-37072D01*
X358436Y-37047D01*
X358426Y-37033D01*
X358421Y-37028D01*
X358367Y-36929D01*
X358347Y-36880D01*
X358327Y-36841D01*
X358317Y-36806D01*
X358308Y-36777D01*
X358298Y-36757D01*
Y-36752D01*
X358263Y-36639D01*
X358254Y-36585D01*
X358244Y-36531D01*
X358234Y-36487D01*
X358229Y-36452D01*
X358224Y-36427D01*
Y-36418D01*
X358214Y-36349D01*
X358204Y-36280D01*
X358199Y-36216D01*
X358194Y-36162D01*
X358190Y-36112D01*
X358185Y-36078D01*
Y-36058D01*
Y-36049D01*
X358180Y-35906D01*
X358175Y-35837D01*
Y-35778D01*
Y-35719D01*
Y-35680D01*
Y-35650D01*
Y-35640D01*
Y-35379D01*
X358185Y-35124D01*
X358190Y-35006D01*
X358194Y-34892D01*
X358199Y-34784D01*
X358204Y-34681D01*
X358209Y-34592D01*
X358214Y-34509D01*
X358219Y-34435D01*
X358224Y-34376D01*
X358229Y-34327D01*
Y-34287D01*
X358234Y-34268D01*
Y-34258D01*
X357727D01*
X357717Y-33839D01*
X358696D01*
X358765Y-33835D01*
X359144D01*
X359238Y-33839D01*
D02*
G37*
G36*
X157201Y-38175D02*
X156501D01*
Y-39975D01*
X157201D01*
Y-40575D01*
X155201D01*
Y-39975D01*
X155901D01*
Y-38175D01*
X155201D01*
Y-37575D01*
X157201D01*
Y-38175D01*
D02*
G37*
G36*
X160099Y-29902D02*
X160139D01*
X160217Y-29907D01*
X160296Y-29912D01*
X160330Y-29917D01*
X160355D01*
X160375Y-29922D01*
X160380D01*
X160429Y-29927D01*
X160468D01*
X160498Y-29932D01*
X160522D01*
X160542Y-29937D01*
X160562D01*
X160557Y-30026D01*
X160552Y-30124D01*
X160542Y-30331D01*
X160537Y-30542D01*
X160532Y-30645D01*
Y-30744D01*
Y-30837D01*
X160527Y-30926D01*
Y-31005D01*
Y-31073D01*
Y-31128D01*
Y-31172D01*
Y-31196D01*
Y-31206D01*
Y-31452D01*
Y-31693D01*
X160532Y-31806D01*
Y-31920D01*
Y-32028D01*
Y-32126D01*
X160537Y-32220D01*
Y-32303D01*
Y-32382D01*
Y-32441D01*
X160542Y-32495D01*
Y-32535D01*
Y-32554D01*
Y-32564D01*
Y-32692D01*
X160547Y-32805D01*
Y-32909D01*
Y-33002D01*
Y-33086D01*
Y-33155D01*
X160552Y-33219D01*
Y-33278D01*
Y-33322D01*
Y-33361D01*
Y-33396D01*
Y-33420D01*
Y-33435D01*
Y-33450D01*
Y-33455D01*
Y-33460D01*
X159917D01*
X159858Y-33465D01*
X159770D01*
X159681Y-33470D01*
X159538D01*
X159489Y-33474D01*
X159401D01*
X159283Y-33470D01*
X159228D01*
X159179Y-33465D01*
X159135D01*
X159105Y-33460D01*
X159076D01*
X159007Y-33450D01*
X158943Y-33430D01*
X158825Y-33391D01*
X158722Y-33332D01*
X158633Y-33278D01*
X158559Y-33219D01*
X158530Y-33194D01*
X158505Y-33169D01*
X158485Y-33150D01*
X158471Y-33140D01*
X158466Y-33130D01*
X158461Y-33125D01*
X158417Y-33066D01*
X158377Y-33007D01*
X158343Y-32948D01*
X158313Y-32884D01*
X158269Y-32761D01*
X158235Y-32643D01*
X158225Y-32594D01*
X158220Y-32544D01*
X158215Y-32500D01*
X158210Y-32461D01*
X158205Y-32431D01*
Y-32407D01*
Y-32392D01*
Y-32387D01*
Y-32318D01*
X158215Y-32254D01*
X158239Y-32126D01*
X158274Y-32018D01*
X158313Y-31925D01*
X158353Y-31846D01*
X158372Y-31816D01*
X158387Y-31792D01*
X158402Y-31772D01*
X158412Y-31752D01*
X158417Y-31747D01*
X158422Y-31743D01*
X158505Y-31649D01*
X158599Y-31570D01*
X158692Y-31501D01*
X158781Y-31447D01*
X158859Y-31408D01*
X158894Y-31393D01*
X158918Y-31378D01*
X158943Y-31369D01*
X158963Y-31364D01*
X158973Y-31359D01*
X158977D01*
X158938Y-31315D01*
X158899Y-31270D01*
X158840Y-31167D01*
X158800Y-31059D01*
X158771Y-30955D01*
X158751Y-30862D01*
X158746Y-30818D01*
Y-30783D01*
X158741Y-30754D01*
Y-30734D01*
Y-30719D01*
Y-30714D01*
X158746Y-30636D01*
X158756Y-30562D01*
X158771Y-30498D01*
X158786Y-30444D01*
X158805Y-30399D01*
X158820Y-30365D01*
X158830Y-30340D01*
X158835Y-30335D01*
X158869Y-30276D01*
X158909Y-30227D01*
X158953Y-30183D01*
X158992Y-30149D01*
X159027Y-30119D01*
X159056Y-30094D01*
X159076Y-30084D01*
X159081Y-30080D01*
X159204Y-30021D01*
X159258Y-29996D01*
X159312Y-29976D01*
X159361Y-29961D01*
X159396Y-29952D01*
X159420Y-29942D01*
X159430D01*
X159578Y-29917D01*
X159647Y-29907D01*
X159711Y-29902D01*
X159765Y-29898D01*
X160070D01*
X160099Y-29902D01*
D02*
G37*
G36*
X163391Y-33460D02*
X162948Y-33465D01*
Y-33435D01*
Y-33396D01*
Y-33342D01*
Y-33278D01*
Y-33209D01*
X162953Y-33135D01*
Y-32982D01*
Y-32904D01*
Y-32835D01*
X162958Y-32766D01*
Y-32707D01*
Y-32658D01*
Y-32618D01*
Y-32594D01*
Y-32584D01*
Y-32446D01*
Y-32323D01*
Y-32210D01*
X162963Y-32112D01*
Y-32023D01*
Y-31949D01*
Y-31880D01*
Y-31821D01*
Y-31777D01*
Y-31738D01*
Y-31703D01*
Y-31679D01*
Y-31659D01*
Y-31649D01*
Y-31639D01*
X162904D01*
X162840Y-31634D01*
X162707D01*
X162564Y-31629D01*
X162048D01*
X161979Y-31634D01*
X161915Y-31639D01*
X161861Y-31649D01*
X161816Y-31654D01*
X161782Y-31664D01*
X161757Y-31669D01*
X161752D01*
X161654Y-31270D01*
X161703Y-31255D01*
X161718D01*
X161738Y-31251D01*
X161748D01*
X161762Y-31246D01*
X161777D01*
X161787Y-31241D01*
X161792D01*
X161831Y-31236D01*
X161851D01*
X161875Y-31231D01*
X161925D01*
X161954Y-31226D01*
X162013D01*
X162048Y-31221D01*
X162387D01*
X162446Y-31226D01*
X162963D01*
Y-30326D01*
X162480D01*
X162357Y-30321D01*
X161536D01*
X161502Y-30326D01*
X161472D01*
X161447Y-30331D01*
X161428D01*
X161418Y-30335D01*
X161413D01*
X161383Y-30340D01*
X161359Y-30345D01*
X161329Y-30350D01*
X161310Y-30355D01*
X161305Y-30360D01*
X161280Y-30370D01*
X161256Y-30385D01*
X161236Y-30395D01*
X161226Y-30399D01*
X161068Y-29996D01*
X161137Y-29966D01*
X161211Y-29947D01*
X161285Y-29927D01*
X161354Y-29917D01*
X161413Y-29907D01*
X161462Y-29902D01*
X161482Y-29898D01*
X163391D01*
Y-33460D01*
D02*
G37*
G36*
X156522Y-29898D02*
X156532Y-29912D01*
X156537Y-29927D01*
X156542Y-29932D01*
X156557Y-29961D01*
X156577Y-29991D01*
X156591Y-30011D01*
X156596Y-30016D01*
Y-30021D01*
X156626Y-30065D01*
X156655Y-30104D01*
X156675Y-30134D01*
X156680Y-30144D01*
X156685Y-30149D01*
X156729Y-30203D01*
X156773Y-30257D01*
X156793Y-30276D01*
X156808Y-30296D01*
X156818Y-30306D01*
X156823Y-30311D01*
X156886Y-30375D01*
X156950Y-30439D01*
X156975Y-30463D01*
X156995Y-30483D01*
X157009Y-30493D01*
X157014Y-30498D01*
X157098Y-30567D01*
X157182Y-30636D01*
X157216Y-30660D01*
X157246Y-30680D01*
X157265Y-30695D01*
X157270Y-30700D01*
X157383Y-30773D01*
X157433Y-30808D01*
X157482Y-30842D01*
X157526Y-30867D01*
X157556Y-30887D01*
X157575Y-30901D01*
X157585Y-30906D01*
X157310Y-31319D01*
X157192Y-31231D01*
X157083Y-31147D01*
X156980Y-31069D01*
X156891Y-31000D01*
X156813Y-30931D01*
X156739Y-30867D01*
X156680Y-30813D01*
X156621Y-30764D01*
X156577Y-30719D01*
X156537Y-30680D01*
X156503Y-30645D01*
X156478Y-30616D01*
X156458Y-30596D01*
X156444Y-30582D01*
X156434Y-30572D01*
Y-30567D01*
X156424Y-33489D01*
X155976D01*
Y-29922D01*
X156518Y-29888D01*
X156522Y-29898D01*
D02*
G37*
G36*
X81163Y30162D02*
X81257Y30152D01*
X81341Y30142D01*
X81414Y30133D01*
X81473Y30123D01*
X81523Y30113D01*
X81552Y30108D01*
X81557Y30103D01*
X81562D01*
X81459Y29700D01*
X81449D01*
X81429Y29704D01*
X81414Y29709D01*
X81409D01*
X81380Y29719D01*
X81360Y29724D01*
X81341D01*
X81311Y29729D01*
X81277D01*
X81247Y29734D01*
X81237D01*
X81178Y29739D01*
X81124Y29744D01*
X81099Y29749D01*
X80937D01*
X80903Y29744D01*
X80612D01*
X80598Y29581D01*
X80588Y29434D01*
X80578Y29296D01*
X80568Y29163D01*
X80558Y29045D01*
X80553Y28937D01*
X80548Y28834D01*
X80544Y28745D01*
X80539Y28666D01*
Y28602D01*
X80534Y28543D01*
Y28494D01*
Y28460D01*
Y28430D01*
Y28416D01*
Y28411D01*
Y28302D01*
Y28209D01*
X80539Y28120D01*
Y28051D01*
X80544Y27987D01*
Y27948D01*
X80548Y27919D01*
Y27909D01*
X80553Y27835D01*
X80558Y27761D01*
X80568Y27692D01*
X80578Y27633D01*
X80583Y27584D01*
X80593Y27550D01*
X80598Y27525D01*
Y27515D01*
X80612Y27451D01*
X80632Y27392D01*
X80647Y27343D01*
X80667Y27299D01*
X80681Y27264D01*
X80696Y27240D01*
X80701Y27225D01*
X80706Y27220D01*
X80760Y27146D01*
X80790Y27117D01*
X80819Y27092D01*
X80844Y27072D01*
X80863Y27058D01*
X80878Y27053D01*
X80883Y27048D01*
X80927Y27028D01*
X80972Y27013D01*
X81011Y27003D01*
X81055Y26998D01*
X81090Y26994D01*
X81119Y26989D01*
X81144D01*
X81198Y26994D01*
X81247Y26998D01*
X81291Y27008D01*
X81331Y27018D01*
X81360Y27028D01*
X81385Y27038D01*
X81400Y27048D01*
X81405D01*
X81478Y27102D01*
X81513Y27131D01*
X81537Y27156D01*
X81557Y27181D01*
X81572Y27200D01*
X81582Y27215D01*
X81587Y27220D01*
X81631Y27308D01*
X81646Y27348D01*
X81660Y27387D01*
X81670Y27417D01*
X81680Y27441D01*
X81685Y27461D01*
Y27466D01*
X81705Y27569D01*
X81714Y27623D01*
X81719Y27668D01*
Y27707D01*
X81724Y27736D01*
Y27761D01*
Y27766D01*
X82162D01*
Y27697D01*
X82157Y27633D01*
X82152Y27574D01*
X82143Y27525D01*
X82138Y27481D01*
X82133Y27446D01*
X82128Y27427D01*
Y27417D01*
X82093Y27294D01*
X82079Y27240D01*
X82059Y27190D01*
X82039Y27151D01*
X82029Y27121D01*
X82020Y27097D01*
X82015Y27092D01*
X81985Y27033D01*
X81951Y26984D01*
X81921Y26939D01*
X81887Y26900D01*
X81862Y26866D01*
X81842Y26841D01*
X81828Y26826D01*
X81823Y26821D01*
X81778Y26782D01*
X81729Y26748D01*
X81680Y26718D01*
X81631Y26689D01*
X81591Y26669D01*
X81562Y26654D01*
X81542Y26649D01*
X81532Y26644D01*
X81464Y26625D01*
X81395Y26610D01*
X81331Y26595D01*
X81267Y26590D01*
X81213Y26585D01*
X81173Y26580D01*
X81065D01*
X81001Y26585D01*
X80942Y26595D01*
X80893Y26605D01*
X80853Y26610D01*
X80819Y26620D01*
X80799Y26625D01*
X80794D01*
X80740Y26644D01*
X80691Y26664D01*
X80647Y26689D01*
X80607Y26708D01*
X80578Y26728D01*
X80553Y26743D01*
X80539Y26752D01*
X80534Y26757D01*
X80460Y26826D01*
X80425Y26861D01*
X80401Y26895D01*
X80376Y26930D01*
X80361Y26954D01*
X80352Y26969D01*
X80347Y26974D01*
X80293Y27072D01*
X80273Y27121D01*
X80253Y27161D01*
X80243Y27195D01*
X80234Y27225D01*
X80224Y27244D01*
Y27249D01*
X80189Y27363D01*
X80179Y27417D01*
X80170Y27471D01*
X80160Y27515D01*
X80155Y27550D01*
X80150Y27574D01*
Y27584D01*
X80140Y27653D01*
X80130Y27722D01*
X80125Y27786D01*
X80120Y27840D01*
X80115Y27889D01*
X80111Y27924D01*
Y27943D01*
Y27953D01*
X80106Y28096D01*
X80101Y28165D01*
Y28224D01*
Y28283D01*
Y28322D01*
Y28352D01*
Y28361D01*
Y28622D01*
X80111Y28878D01*
X80115Y28996D01*
X80120Y29109D01*
X80125Y29217D01*
X80130Y29321D01*
X80135Y29409D01*
X80140Y29493D01*
X80145Y29567D01*
X80150Y29626D01*
X80155Y29675D01*
Y29714D01*
X80160Y29734D01*
Y29744D01*
X79653D01*
X79643Y30162D01*
X80622D01*
X80691Y30167D01*
X81070D01*
X81163Y30162D01*
D02*
G37*
G36*
X241163D02*
X241257Y30152D01*
X241341Y30142D01*
X241414Y30133D01*
X241473Y30123D01*
X241523Y30113D01*
X241552Y30108D01*
X241557Y30103D01*
X241562D01*
X241459Y29700D01*
X241449D01*
X241429Y29704D01*
X241414Y29709D01*
X241409D01*
X241380Y29719D01*
X241360Y29724D01*
X241341D01*
X241311Y29729D01*
X241277D01*
X241247Y29734D01*
X241237D01*
X241178Y29739D01*
X241124Y29744D01*
X241100Y29749D01*
X240937D01*
X240903Y29744D01*
X240612D01*
X240598Y29581D01*
X240588Y29434D01*
X240578Y29296D01*
X240568Y29163D01*
X240558Y29045D01*
X240553Y28937D01*
X240548Y28834D01*
X240544Y28745D01*
X240539Y28666D01*
Y28602D01*
X240534Y28543D01*
Y28494D01*
Y28460D01*
Y28430D01*
Y28416D01*
Y28411D01*
Y28302D01*
Y28209D01*
X240539Y28120D01*
Y28051D01*
X240544Y27987D01*
Y27948D01*
X240548Y27919D01*
Y27909D01*
X240553Y27835D01*
X240558Y27761D01*
X240568Y27692D01*
X240578Y27633D01*
X240583Y27584D01*
X240593Y27550D01*
X240598Y27525D01*
Y27515D01*
X240612Y27451D01*
X240632Y27392D01*
X240647Y27343D01*
X240667Y27299D01*
X240681Y27264D01*
X240696Y27240D01*
X240701Y27225D01*
X240706Y27220D01*
X240760Y27146D01*
X240790Y27117D01*
X240819Y27092D01*
X240844Y27072D01*
X240863Y27058D01*
X240878Y27053D01*
X240883Y27048D01*
X240927Y27028D01*
X240972Y27013D01*
X241011Y27003D01*
X241055Y26998D01*
X241090Y26994D01*
X241119Y26989D01*
X241144D01*
X241198Y26994D01*
X241247Y26998D01*
X241291Y27008D01*
X241331Y27018D01*
X241360Y27028D01*
X241385Y27038D01*
X241400Y27048D01*
X241405D01*
X241478Y27102D01*
X241513Y27131D01*
X241537Y27156D01*
X241557Y27181D01*
X241572Y27200D01*
X241582Y27215D01*
X241587Y27220D01*
X241631Y27308D01*
X241646Y27348D01*
X241660Y27387D01*
X241670Y27417D01*
X241680Y27441D01*
X241685Y27461D01*
Y27466D01*
X241705Y27569D01*
X241715Y27623D01*
X241719Y27668D01*
Y27707D01*
X241724Y27736D01*
Y27761D01*
Y27766D01*
X242162D01*
Y27697D01*
X242157Y27633D01*
X242152Y27574D01*
X242143Y27525D01*
X242138Y27481D01*
X242133Y27446D01*
X242128Y27427D01*
Y27417D01*
X242093Y27294D01*
X242079Y27240D01*
X242059Y27190D01*
X242039Y27151D01*
X242029Y27121D01*
X242020Y27097D01*
X242015Y27092D01*
X241985Y27033D01*
X241951Y26984D01*
X241921Y26939D01*
X241887Y26900D01*
X241862Y26866D01*
X241842Y26841D01*
X241828Y26826D01*
X241823Y26821D01*
X241778Y26782D01*
X241729Y26748D01*
X241680Y26718D01*
X241631Y26689D01*
X241592Y26669D01*
X241562Y26654D01*
X241542Y26649D01*
X241532Y26644D01*
X241464Y26625D01*
X241395Y26610D01*
X241331Y26595D01*
X241267Y26590D01*
X241213Y26585D01*
X241173Y26580D01*
X241065D01*
X241001Y26585D01*
X240942Y26595D01*
X240893Y26605D01*
X240854Y26610D01*
X240819Y26620D01*
X240799Y26625D01*
X240794D01*
X240740Y26644D01*
X240691Y26664D01*
X240647Y26689D01*
X240608Y26708D01*
X240578Y26728D01*
X240553Y26743D01*
X240539Y26752D01*
X240534Y26757D01*
X240460Y26826D01*
X240425Y26861D01*
X240401Y26895D01*
X240376Y26930D01*
X240361Y26954D01*
X240352Y26969D01*
X240347Y26974D01*
X240293Y27072D01*
X240273Y27121D01*
X240253Y27161D01*
X240243Y27195D01*
X240234Y27225D01*
X240224Y27244D01*
Y27249D01*
X240189Y27363D01*
X240179Y27417D01*
X240170Y27471D01*
X240160Y27515D01*
X240155Y27550D01*
X240150Y27574D01*
Y27584D01*
X240140Y27653D01*
X240130Y27722D01*
X240125Y27786D01*
X240120Y27840D01*
X240115Y27889D01*
X240111Y27924D01*
Y27943D01*
Y27953D01*
X240106Y28096D01*
X240101Y28165D01*
Y28224D01*
Y28283D01*
Y28322D01*
Y28352D01*
Y28361D01*
Y28622D01*
X240111Y28878D01*
X240115Y28996D01*
X240120Y29109D01*
X240125Y29217D01*
X240130Y29321D01*
X240135Y29409D01*
X240140Y29493D01*
X240145Y29567D01*
X240150Y29626D01*
X240155Y29675D01*
Y29714D01*
X240160Y29734D01*
Y29744D01*
X239653D01*
X239643Y30162D01*
X240622D01*
X240691Y30167D01*
X241070D01*
X241163Y30162D01*
D02*
G37*
G36*
X238084Y30182D02*
X238157Y30177D01*
X238295Y30147D01*
X238418Y30108D01*
X238472Y30083D01*
X238521Y30059D01*
X238566Y30034D01*
X238605Y30010D01*
X238639Y29990D01*
X238669Y29970D01*
X238689Y29955D01*
X238703Y29941D01*
X238713Y29936D01*
X238718Y29931D01*
X238767Y29882D01*
X238812Y29827D01*
X238851Y29773D01*
X238881Y29714D01*
X238910Y29655D01*
X238935Y29596D01*
X238969Y29488D01*
X238989Y29385D01*
X238994Y29340D01*
X238999Y29306D01*
X239004Y29276D01*
Y29252D01*
Y29237D01*
Y29232D01*
Y29208D01*
Y29198D01*
Y29193D01*
X238999Y29173D01*
Y29163D01*
X238989Y29045D01*
X238979Y28996D01*
X238969Y28947D01*
X238959Y28907D01*
X238954Y28878D01*
X238945Y28858D01*
Y28853D01*
X238531Y28952D01*
X238556Y29021D01*
X238566Y29075D01*
X238571Y29094D01*
Y29109D01*
Y29119D01*
Y29124D01*
X238566Y29237D01*
X238546Y29335D01*
X238521Y29414D01*
X238492Y29483D01*
X238467Y29532D01*
X238443Y29572D01*
X238423Y29596D01*
X238418Y29601D01*
X238354Y29655D01*
X238285Y29695D01*
X238211Y29719D01*
X238143Y29739D01*
X238079Y29749D01*
X238029Y29759D01*
X237985D01*
X237887Y29749D01*
X237803Y29729D01*
X237729Y29704D01*
X237670Y29670D01*
X237626Y29636D01*
X237592Y29611D01*
X237572Y29591D01*
X237567Y29581D01*
X237523Y29513D01*
X237488Y29439D01*
X237464Y29365D01*
X237444Y29296D01*
X237434Y29237D01*
X237429Y29188D01*
Y29168D01*
Y29153D01*
Y29149D01*
Y29144D01*
X237434Y29094D01*
X237444Y29045D01*
X237459Y28991D01*
X237473Y28947D01*
X237493Y28903D01*
X237508Y28873D01*
X237518Y28853D01*
X237523Y28844D01*
X237557Y28780D01*
X237596Y28721D01*
X237636Y28666D01*
X237675Y28617D01*
X237710Y28578D01*
X237739Y28548D01*
X237759Y28529D01*
X237764Y28524D01*
X237813Y28479D01*
X237867Y28430D01*
X237931Y28381D01*
X237990Y28327D01*
X238049Y28283D01*
X238093Y28243D01*
X238113Y28229D01*
X238128Y28219D01*
X238133Y28214D01*
X238138Y28209D01*
X238231Y28135D01*
X238310Y28066D01*
X238384Y28007D01*
X238438Y27958D01*
X238487Y27919D01*
X238516Y27889D01*
X238541Y27869D01*
X238546Y27864D01*
X238615Y27796D01*
X238679Y27727D01*
X238738Y27658D01*
X238787Y27589D01*
X238831Y27520D01*
X238871Y27456D01*
X238905Y27397D01*
X238930Y27338D01*
X238954Y27284D01*
X238974Y27235D01*
X238989Y27195D01*
X238999Y27156D01*
X239008Y27126D01*
X239013Y27107D01*
X239018Y27092D01*
Y27087D01*
X239028Y27013D01*
X239033Y26939D01*
Y26910D01*
Y26885D01*
Y26871D01*
Y26866D01*
Y26821D01*
Y26777D01*
Y26757D01*
Y26743D01*
Y26733D01*
Y26728D01*
X239028Y26674D01*
Y26634D01*
Y26615D01*
Y26605D01*
X236942D01*
Y27028D01*
X238551Y27023D01*
X238546Y27058D01*
X238536Y27097D01*
X238512Y27166D01*
X238497Y27200D01*
X238487Y27225D01*
X238482Y27240D01*
X238477Y27244D01*
X238448Y27294D01*
X238413Y27343D01*
X238384Y27387D01*
X238349Y27427D01*
X238320Y27461D01*
X238295Y27486D01*
X238275Y27505D01*
X238270Y27510D01*
X238211Y27564D01*
X238143Y27628D01*
X238069Y27692D01*
X238000Y27756D01*
X237936Y27810D01*
X237887Y27855D01*
X237867Y27869D01*
X237852Y27884D01*
X237842Y27889D01*
X237838Y27894D01*
X237734Y27983D01*
X237651Y28056D01*
X237582Y28115D01*
X237523Y28165D01*
X237483Y28204D01*
X237454Y28233D01*
X237434Y28248D01*
X237429Y28253D01*
X237350Y28342D01*
X237286Y28425D01*
X237227Y28509D01*
X237178Y28593D01*
X237139Y28666D01*
X237100Y28740D01*
X237075Y28814D01*
X237050Y28878D01*
X237031Y28937D01*
X237021Y28986D01*
X237011Y29035D01*
X237001Y29075D01*
Y29104D01*
X236996Y29129D01*
Y29144D01*
Y29149D01*
X237001Y29242D01*
X237006Y29331D01*
X237021Y29414D01*
X237040Y29493D01*
X237060Y29562D01*
X237090Y29631D01*
X237119Y29690D01*
X237154Y29749D01*
X237232Y29847D01*
X237316Y29936D01*
X237405Y30000D01*
X237498Y30059D01*
X237596Y30098D01*
X237685Y30133D01*
X237769Y30157D01*
X237847Y30172D01*
X237911Y30182D01*
X237961Y30187D01*
X238005D01*
X238084Y30182D01*
D02*
G37*
G36*
X78000Y30167D02*
X78010Y30152D01*
X78015Y30138D01*
X78020Y30133D01*
X78034Y30103D01*
X78054Y30073D01*
X78069Y30054D01*
X78074Y30049D01*
Y30044D01*
X78103Y30000D01*
X78133Y29960D01*
X78152Y29931D01*
X78157Y29921D01*
X78162Y29916D01*
X78206Y29862D01*
X78251Y29808D01*
X78271Y29788D01*
X78285Y29768D01*
X78295Y29759D01*
X78300Y29754D01*
X78364Y29690D01*
X78428Y29626D01*
X78452Y29601D01*
X78472Y29581D01*
X78487Y29572D01*
X78492Y29567D01*
X78575Y29498D01*
X78659Y29429D01*
X78694Y29404D01*
X78723Y29385D01*
X78743Y29370D01*
X78748Y29365D01*
X78861Y29291D01*
X78910Y29257D01*
X78959Y29222D01*
X79004Y29198D01*
X79033Y29178D01*
X79053Y29163D01*
X79063Y29158D01*
X78787Y28745D01*
X78669Y28834D01*
X78561Y28917D01*
X78457Y28996D01*
X78369Y29065D01*
X78290Y29134D01*
X78216Y29198D01*
X78157Y29252D01*
X78098Y29301D01*
X78054Y29345D01*
X78015Y29385D01*
X77980Y29419D01*
X77956Y29449D01*
X77936Y29468D01*
X77921Y29483D01*
X77911Y29493D01*
Y29498D01*
X77902Y26575D01*
X77454D01*
Y30142D01*
X77995Y30177D01*
X78000Y30167D01*
D02*
G37*
%LPC*%
G36*
X562700Y29316D02*
Y28165D01*
X563571D01*
X563492Y28253D01*
X563413Y28342D01*
X563334Y28435D01*
X563266Y28524D01*
X563202Y28602D01*
X563177Y28637D01*
X563152Y28666D01*
X563133Y28686D01*
X563118Y28706D01*
X563113Y28716D01*
X563108Y28721D01*
X563015Y28844D01*
X562931Y28962D01*
X562862Y29060D01*
X562803Y29149D01*
X562759Y29222D01*
X562739Y29252D01*
X562724Y29276D01*
X562714Y29296D01*
X562705Y29311D01*
X562700Y29316D01*
D02*
G37*
G36*
X206458Y-39641D02*
X206414D01*
X206315Y-39651D01*
X206226Y-39671D01*
X206148Y-39700D01*
X206084Y-39735D01*
X206035Y-39769D01*
X205995Y-39799D01*
X205976Y-39818D01*
X205966Y-39828D01*
X205912Y-39902D01*
X205867Y-39976D01*
X205838Y-40055D01*
X205818Y-40128D01*
X205808Y-40197D01*
X205799Y-40246D01*
Y-40266D01*
Y-40281D01*
Y-40291D01*
Y-40295D01*
X205808Y-40404D01*
X205828Y-40497D01*
X205857Y-40581D01*
X205892Y-40645D01*
X205931Y-40699D01*
X205961Y-40738D01*
X205980Y-40758D01*
X205990Y-40768D01*
X206069Y-40822D01*
X206148Y-40861D01*
X206231Y-40891D01*
X206310Y-40911D01*
X206379Y-40920D01*
X206438Y-40925D01*
X206458Y-40930D01*
X206487D01*
X206537Y-40925D01*
X206586Y-40920D01*
X206674Y-40896D01*
X206748Y-40856D01*
X206812Y-40817D01*
X206866Y-40778D01*
X206906Y-40738D01*
X206925Y-40714D01*
X206935Y-40704D01*
X206994Y-40615D01*
X207033Y-40517D01*
X207063Y-40424D01*
X207087Y-40335D01*
X207097Y-40256D01*
X207102Y-40222D01*
Y-40192D01*
X207107Y-40168D01*
Y-40148D01*
Y-40138D01*
Y-40133D01*
X207087Y-40064D01*
X207058Y-40000D01*
X207019Y-39941D01*
X206979Y-39892D01*
X206940Y-39853D01*
X206906Y-39818D01*
X206886Y-39799D01*
X206876Y-39794D01*
X206797Y-39744D01*
X206718Y-39705D01*
X206640Y-39680D01*
X206571Y-39661D01*
X206507Y-39651D01*
X206458Y-39641D01*
D02*
G37*
G36*
X356094Y-35596D02*
X356034Y-35625D01*
X355985Y-35650D01*
X355941Y-35675D01*
X355902Y-35694D01*
X355872Y-35714D01*
X355848Y-35729D01*
X355833Y-35734D01*
X355828Y-35739D01*
X355744Y-35793D01*
X355705Y-35817D01*
X355670Y-35842D01*
X355641Y-35866D01*
X355621Y-35886D01*
X355607Y-35896D01*
X355602Y-35901D01*
X355562Y-35935D01*
X355528Y-35975D01*
X355498Y-36014D01*
X355474Y-36049D01*
X355459Y-36078D01*
X355444Y-36103D01*
X355434Y-36118D01*
Y-36122D01*
X355415Y-36172D01*
X355400Y-36216D01*
X355390Y-36260D01*
X355380Y-36304D01*
Y-36339D01*
X355375Y-36368D01*
Y-36388D01*
Y-36393D01*
X355385Y-36491D01*
X355405Y-36580D01*
X355434Y-36654D01*
X355469Y-36718D01*
X355508Y-36772D01*
X355538Y-36806D01*
X355557Y-36826D01*
X355567Y-36836D01*
X355646Y-36890D01*
X355730Y-36929D01*
X355818Y-36959D01*
X355907Y-36978D01*
X355980Y-36988D01*
X356015Y-36993D01*
X356044D01*
X356064Y-36998D01*
X356099D01*
X356217Y-36993D01*
X356320Y-36974D01*
X356413Y-36949D01*
X356487Y-36915D01*
X356546Y-36885D01*
X356591Y-36860D01*
X356615Y-36841D01*
X356625Y-36836D01*
X356689Y-36772D01*
X356738Y-36698D01*
X356768Y-36624D01*
X356792Y-36555D01*
X356807Y-36491D01*
X356812Y-36437D01*
X356817Y-36418D01*
Y-36403D01*
Y-36398D01*
Y-36393D01*
X356812Y-36339D01*
X356807Y-36290D01*
X356797Y-36240D01*
X356787Y-36201D01*
X356778Y-36167D01*
X356772Y-36142D01*
X356763Y-36127D01*
Y-36122D01*
X356738Y-36078D01*
X356709Y-36034D01*
X356684Y-35994D01*
X356655Y-35965D01*
X356630Y-35935D01*
X356610Y-35916D01*
X356595Y-35906D01*
X356591Y-35901D01*
X356507Y-35832D01*
X356472Y-35807D01*
X356438Y-35783D01*
X356409Y-35763D01*
X356389Y-35748D01*
X356374Y-35743D01*
X356369Y-35739D01*
X356280Y-35689D01*
X356231Y-35665D01*
X356187Y-35640D01*
X356153Y-35620D01*
X356118Y-35611D01*
X356099Y-35601D01*
X356094Y-35596D01*
D02*
G37*
G36*
X356143Y-34282D02*
X356103D01*
X356020Y-34287D01*
X355946Y-34302D01*
X355882Y-34322D01*
X355828Y-34341D01*
X355784Y-34361D01*
X355754Y-34381D01*
X355734Y-34395D01*
X355730Y-34400D01*
X355685Y-34445D01*
X355651Y-34494D01*
X355626Y-34538D01*
X355607Y-34587D01*
X355597Y-34627D01*
X355592Y-34656D01*
Y-34676D01*
Y-34686D01*
X355597Y-34740D01*
X355611Y-34789D01*
X355636Y-34833D01*
X355661Y-34878D01*
X355690Y-34912D01*
X355710Y-34937D01*
X355730Y-34956D01*
X355734Y-34961D01*
X355788Y-35006D01*
X355853Y-35045D01*
X355911Y-35079D01*
X355966Y-35104D01*
X356020Y-35124D01*
X356059Y-35138D01*
X356084Y-35143D01*
X356089Y-35148D01*
X356094D01*
X356172Y-35124D01*
X356246Y-35094D01*
X356305Y-35065D01*
X356359Y-35035D01*
X356403Y-35006D01*
X356438Y-34981D01*
X356458Y-34966D01*
X356463Y-34961D01*
X356512Y-34912D01*
X356546Y-34858D01*
X356576Y-34814D01*
X356591Y-34769D01*
X356600Y-34735D01*
X356605Y-34710D01*
X356610Y-34691D01*
Y-34686D01*
X356605Y-34622D01*
X356591Y-34568D01*
X356566Y-34519D01*
X356541Y-34479D01*
X356522Y-34445D01*
X356497Y-34420D01*
X356482Y-34405D01*
X356477Y-34400D01*
X356423Y-34361D01*
X356359Y-34332D01*
X356300Y-34312D01*
X356236Y-34297D01*
X356187Y-34287D01*
X356143Y-34282D01*
D02*
G37*
G36*
X159927Y-30306D02*
X159814D01*
X159706Y-30311D01*
X159612Y-30321D01*
X159534Y-30340D01*
X159465Y-30360D01*
X159411Y-30380D01*
X159371Y-30399D01*
X159351Y-30409D01*
X159342Y-30414D01*
X159283Y-30458D01*
X159243Y-30508D01*
X159214Y-30562D01*
X159189Y-30616D01*
X159179Y-30665D01*
X159174Y-30705D01*
X159169Y-30729D01*
Y-30734D01*
Y-30739D01*
Y-30764D01*
X159174Y-30847D01*
X159179Y-30887D01*
X159189Y-30916D01*
X159194Y-30946D01*
X159204Y-30965D01*
X159209Y-30980D01*
Y-30985D01*
X159223Y-31019D01*
X159238Y-31049D01*
X159253Y-31073D01*
X159268Y-31088D01*
X159292Y-31113D01*
X159297Y-31118D01*
X159302D01*
X159342Y-31142D01*
X159371Y-31162D01*
X159391Y-31172D01*
X159401Y-31177D01*
X159435Y-31192D01*
X159469Y-31201D01*
X159494Y-31206D01*
X159499Y-31211D01*
X159504D01*
X159538Y-31221D01*
X159568Y-31231D01*
X159583Y-31236D01*
X159588D01*
X159617Y-31241D01*
X159652Y-31246D01*
X159681Y-31251D01*
X159696D01*
X159745Y-31255D01*
X159878D01*
X159903Y-31260D01*
X160089D01*
Y-31216D01*
Y-31172D01*
Y-31073D01*
Y-31029D01*
Y-30995D01*
Y-30970D01*
Y-30960D01*
Y-30891D01*
X160084Y-30832D01*
Y-30783D01*
Y-30739D01*
Y-30709D01*
Y-30690D01*
Y-30675D01*
Y-30670D01*
Y-30591D01*
Y-30522D01*
X160089Y-30463D01*
Y-30414D01*
Y-30375D01*
X160094Y-30345D01*
Y-30326D01*
Y-30321D01*
X160045Y-30316D01*
X160001Y-30311D01*
X159961D01*
X159927Y-30306D01*
D02*
G37*
G36*
X159597Y-31683D02*
X159401D01*
X159332Y-31688D01*
X159273Y-31693D01*
X159223Y-31703D01*
X159184Y-31708D01*
X159155Y-31718D01*
X159135Y-31723D01*
X159130D01*
X159076Y-31743D01*
X159027Y-31762D01*
X158982Y-31792D01*
X158938Y-31816D01*
X158904Y-31841D01*
X158874Y-31861D01*
X158854Y-31875D01*
X158850Y-31880D01*
X158810Y-31915D01*
X158781Y-31949D01*
X158751Y-31984D01*
X158731Y-32013D01*
X158712Y-32038D01*
X158702Y-32057D01*
X158692Y-32072D01*
Y-32077D01*
X158663Y-32166D01*
X158653Y-32210D01*
X158648Y-32249D01*
X158643Y-32289D01*
Y-32318D01*
Y-32338D01*
Y-32343D01*
X158648Y-32446D01*
X158668Y-32540D01*
X158692Y-32618D01*
X158722Y-32692D01*
X158756Y-32746D01*
X158781Y-32790D01*
X158800Y-32815D01*
X158805Y-32825D01*
X158869Y-32889D01*
X158933Y-32938D01*
X158997Y-32978D01*
X159056Y-33007D01*
X159110Y-33027D01*
X159150Y-33037D01*
X159179Y-33046D01*
X159189D01*
X159292Y-33056D01*
X159346Y-33061D01*
X159391D01*
X159435Y-33066D01*
X159573D01*
X159661Y-33061D01*
X159701D01*
X159735Y-33056D01*
X159765D01*
X159834Y-33051D01*
X159893D01*
X159952Y-33046D01*
X160104D01*
Y-33007D01*
Y-32968D01*
Y-32874D01*
Y-32835D01*
Y-32800D01*
Y-32781D01*
Y-32771D01*
Y-32692D01*
X160099Y-32609D01*
Y-32525D01*
Y-32446D01*
Y-32372D01*
Y-32318D01*
Y-32294D01*
Y-32279D01*
Y-32269D01*
Y-32264D01*
Y-32146D01*
Y-32038D01*
Y-31939D01*
X160094Y-31856D01*
Y-31787D01*
Y-31733D01*
Y-31713D01*
Y-31698D01*
Y-31693D01*
Y-31688D01*
X159647D01*
X159597Y-31683D01*
D02*
G37*
%LPD*%
D10*
X179980Y-90039D02*
G03*
X177244Y-92776I0J-2736D01*
G01*
X174508Y-109646D02*
G03*
X177244Y-106909I0J2736D01*
G01*
X-4370Y-92776D02*
G03*
X-7106Y-90039I-2736J0D01*
G01*
X-4370Y-106909D02*
G03*
X-1634Y-109646I2736J0D01*
G01*
X212185Y-53375D02*
Y-43681D01*
Y-89980D02*
Y-74224D01*
X-39311Y-53375D02*
Y-43681D01*
Y-89980D02*
Y-74224D01*
Y-43681D02*
X212185D01*
X-39311Y-89980D02*
X212185D01*
X177244Y-106909D02*
Y-92776D01*
X-1634Y-109665D02*
X174508D01*
X-4370Y-106909D02*
Y-92776D01*
X238509Y-40150D02*
X359809D01*
X359809Y-89850D02*
Y-40150D01*
X238510Y-89850D02*
Y-40150D01*
D31*
X-28887Y-63799D02*
X-27559D01*
D44*
X278053Y-37592D02*
G03*
X278053Y-37592I-492J0D01*
G01*
D45*
X155201Y-40575D02*
Y-39975D01*
Y-40575D02*
X157201D01*
X156501Y-39975D02*
X157201D01*
X155201D02*
X155901D01*
X157201Y-40575D02*
Y-39975D01*
X156501D02*
Y-38175D01*
X155901Y-39975D02*
Y-38175D01*
X155201D02*
Y-37575D01*
X156501Y-38175D02*
X157201D01*
X155201D02*
X155901D01*
X155201Y-37575D02*
X157201D01*
Y-38175D02*
Y-37575D01*
D46*
X10904Y-35906D02*
X6968D01*
X10904Y-39841D01*
Y-40825D01*
X9920Y-41809D01*
X7952D01*
X6968Y-40825D01*
X164016D02*
X165000Y-41809D01*
X166968D01*
X167952Y-40825D01*
Y-39841D01*
X166968Y-38857D01*
X165984D01*
X166968D01*
X167952Y-37873D01*
Y-36889D01*
X166968Y-35906D01*
X165000D01*
X164016Y-36889D01*
X172871Y-35906D02*
Y-41809D01*
X169919Y-38857D01*
X173855D01*
X-984Y-80569D02*
X-0Y-81553D01*
X1967D01*
X2952Y-80569D01*
Y-79585D01*
X1967Y-78601D01*
X984D01*
X1967D01*
X2952Y-77618D01*
Y-76634D01*
X1967Y-75650D01*
X-0D01*
X-984Y-76634D01*
X8855Y-81553D02*
X4919D01*
Y-78601D01*
X6887Y-79585D01*
X7871D01*
X8855Y-78601D01*
Y-76634D01*
X7871Y-75650D01*
X5903D01*
X4919Y-76634D01*
X162952Y-81553D02*
X160984Y-80569D01*
X159016Y-78601D01*
Y-76634D01*
X160000Y-75650D01*
X161968D01*
X162952Y-76634D01*
Y-77618D01*
X161968Y-78601D01*
X159016D01*
X164919Y-81553D02*
X168855D01*
Y-80569D01*
X164919Y-76634D01*
Y-75650D01*
M02*
