M48
;Layer_Color=9474304
;FILE_FORMAT=2:5
INCH,TZ
;TYPE=PLATED
T2F00S00C0.01378
T3F00S00C0.03386
T4F00S00C0.03543
T5F00S00C0.04100
T6F00S00C0.05118
T7F00S00C0.12205
T8F00S00C0.12500
T9F00S00C0.12520
;TYPE=NON_PLATED
T1F00S00C0.12205
%
T02
X23425Y-30807
X25789Y-28348
X30118Y-37106
X32776Y-34843
X55315Y-22933
X55318Y-19489
X59449Y-16535
X62805Y-40560
X65259Y-38191
X69488Y-34744
X75886Y-40748
X87008Y-31102
X92421Y-29035
X89085Y-69941
X95214Y-82119
X98324Y-83965
X91870Y-85483
X86614Y-86614
X106195Y-76089
X109813Y-76914
X106004Y-31693
X103051Y-29035
X108760Y-25689
X112008Y-23228
X122441Y-18898
X127165
X131496
X153150Y-31496
Y-34646
X227953Y16535
X231458
Y20079
X231496Y12992
X235039Y16535
X253937Y-3937
X257480
Y-7480
Y-394
X261024Y-3937
X281102Y16535
Y19685
X277953
X281102Y22835
X284252Y19685
X307087Y31102
X310236
Y27953
Y34252
X313386Y31102
X-79626Y40650
Y61713
X-91732Y168110
Y172441
Y176378
T03
X3937Y-71299
X13937
X23937
X33937
X43937
X53937
X63937
X73937
X83937
X93937
X88937Y-63799
X78937
X68937
X58937
X48937
X38937
X28937
X18937
X8937
X13937Y-56299
X23937
X33937
X43937
X53937
X63937
X73937
X83937
X93937
X88937Y-48799
X78937
X68937
X58937
X48937
X38937
X28937
X18937
X8937
X3937Y-56299
X103937
X113937
X123937
X133937
X143937
X153937
X163937
X168937Y-63799
X158937
X148937
X138937
X128937
X118937
X108937
X98937
X103937Y-71299
X113937
X123937
X133937
X143937
X153937
X163937
X168937Y-48799
X158937
X148937
X138937
X128937
X118937
X108937
X98937
T04
X4508Y-7795
X13524
X22539
X31555
X40571
X36063Y0
X27047
X18032
X9016
X0
X4508Y7795
X13524
X22539
X31555
X40571
X164508
X173524
X182539
X191555
X200571
X196063Y0
X187047
X178032
X169016
X160000
X164508Y-7795
X173524
X182539
X191555
X200571
X329508
X338524
X347539
X356555
X365571
X361063Y0
X352047
X343032
X334016
X325000
X329508Y7795
X338524
X347539
X356555
X365571
X489508
X498524
X507539
X516555
X525571
X521063Y0
X512047
X503031
X494016
X485000
X489508Y-7795
X498524
X507539
X516555
X525571
X-102205Y64508
Y73524
Y82539
Y91555
Y100571
Y109587
Y118602
Y127618
Y136634
Y145650
Y154665
Y163681
Y172697
Y181713
X-110000Y177205
Y168189
Y159173
Y150157
Y141142
Y132126
Y123110
Y114094
Y105079
Y96063
Y87047
Y78031
Y69016
Y60000
X-117795Y64508
Y73524
Y82539
Y91555
Y100571
Y109587
Y118602
Y127618
Y136634
Y145650
Y154665
Y163681
Y172697
Y181713
Y55492
X-110000Y186221
T05
X282959Y-58050
X293759
X304559
X315359
X320759Y-46850
X309959
X299159
X288359
X277559
T06
X525000Y109449
X544685
Y150000
X525000
X504685
X485000
X384685
X365000
X344685
X325000
X219685
X200000
X179685
X160000
X59685
X40000
X19685
X0
T07
X-110000Y28032
Y213228
T08
X249959Y-52450
X348359
T09
X-27559Y-63799
X200433
T01
X-27638Y0
X70748
X132362
X230748
X297362
X395748
X457362
X555748
M30
